<svg fill="none" height="139" viewBox="0 0 601 139" width="601" xmlns="http://www.w3.org/2000/svg"><g fill="#fff"><path d="m48.3999 76.4v16.7c12.7 0 24.9-4.9 33.9-13.6s14.1-20.6 14.1-32.9h-17.2c0 7.9-3.3 15.5-9 21.1-5.8 5.5-13.6 8.7-21.8 8.7z"/><path d="m48.4001 122.4c-8.1 0-15.9-3.1-21.6-8.7s-9-13.1-9-21 3.2-15.4 9-21c5.7-5.6 13.5-8.7 21.6-8.7v-16.6c-6.3 0-12.5 1.2-18.2 3.5-5.8 2.3-11 5.7-15.5 10-4.4 4.3-8 9.4-10.4 15s-3.600002 11.6-3.700002 17.7c0 6.1 1.200002 12.1 3.600002 17.7s5.9 10.7 10.3 15 9.7 7.7 15.5 10 12 3.5 18.2 3.5h.1v-16.4z"/><path d="m48.3999 122.4v16.6c12.6 0 24.8-4.9 33.7-13.5s14-20.4 14-32.7h-17.1c0 7.9-3.2 15.4-9 21-5.7 5.4-13.5 8.5-21.6 8.6z"/><path d="m48.3999 30v16.6c12.6 0 24.8-4.9 33.7-13.5 8.9-8.7 14-20.4 14-32.700006h-17.1c0 7.899996-3.2 15.400006-9 21.000006-5.7 5.4-13.5 8.6-21.6 8.6z"/><path d="m96.2998 30v16.6c12.6002 0 24.8002-4.9 33.7002-13.5 8.9-8.7 14-20.4 14-32.700006h-17.1c0 7.899996-3.2 15.400006-9 21.000006-5.7 5.4-13.4 8.6-21.6002 8.6z"/><path d="m223.6 69.5h8.8l2.1 4.5c1.1-1 2.3-1.8 3.6-2.5 1.4-.7 2.8-1.2 4.2-1.7 1.8-.6 3.7-.8 5.6-.8 2.9 0 5.8.6 8.5 1.7 2.7 1.2 5.1 2.8 7.1 4.9 2.1 2.2 3.7 4.7 4.9 7.5 2.4 6.1 2.4 12.8 0 18.9-1.1 2.8-2.8 5.3-4.9 7.5-2 2.1-4.4 3.8-7.1 4.9-2.7 1.2-5.6 1.8-8.5 1.8-1.8 0-3.5-.2-5.2-.7-1.3-.4-2.6-.9-3.9-1.5-1.2-.6-2.3-1.4-3.3-2.3v20.1h-11.9zm22.8 35.6c1.6 0 3.2-.2 4.6-.8 1.5-.6 2.8-1.5 3.9-2.6 2.3-2.3 3.4-5.3 3.4-9.1.1-1.7-.2-3.3-.8-4.9s-1.5-3-2.7-4.2c-1.1-1.1-2.4-1.9-3.9-2.5s-3-.9-4.6-.9-3.1.3-4.6.9-2.8 1.4-3.9 2.5c-2.3 2.3-3.4 5.3-3.4 9.1s1.1 6.9 3.4 9.1c1.1 1.1 2.4 2 3.9 2.6 1.6.6 3.1.9 4.7.8zm52.3 11.1c-2.2 0-4.4-.4-6.5-1.2-1.9-.7-3.7-1.9-5.1-3.4s-2.6-3.3-3.3-5.2c-.8-2.2-1.2-4.5-1.2-6.8v-19.6h-7.2v-9.5h3.1c3.8 0 5.7-1.8 5.7-5.5v-6.5h10.4v11.1h10.4v10.5h-10.4v19.1c-.1.8 0 1.6.3 2.4s.7 1.5 1.2 2.1 1.2 1.1 1.9 1.5 1.5.6 2.3.6h1 1.3c.3 0 .7-.1 1-.2s.6-.2.8-.3v10c-.5.2-1.1.4-1.7.5-1.2.3-2.6.4-4 .4zm22.3-52.2c-1.6 0-3.2-.5-4.4-1.4-1.3-1-2.1-2.3-2.5-3.8-.3-1.5-.1-3.1.6-4.5s1.9-2.5 3.4-3.1 3.1-.7 4.7-.3c1.5.4 2.9 1.4 3.8 2.7s1.3 2.8 1.2 4.4c-.2 1.5-.9 3-2 4.1-.6.6-1.3 1.1-2.1 1.5-1 .2-1.8.4-2.7.4zm-6.2 5.5h11.9v46.2h-11.9zm23.3 0h8.8l2.1 4.5c1-.9 2.1-1.8 3.2-2.5s2.3-1.2 3.5-1.7c1.5-.5 3.1-.8 4.7-.8 2.1-.1 4.2.3 6.2.9 1.5.5 2.9 1.2 4.2 2.1 1.2.8 2.2 1.8 3 3 1.1-1.2 2.4-2.2 3.8-3s2.9-1.5 4.5-2.1c1.8-.6 3.7-1 5.7-.9 5.2 0 9.3 1.6 12.4 4.8s4.7 8 4.7 14.3v27.6h-11.9v-26.6c.1-2.4-.7-4.8-2.3-6.6-.6-.7-1.4-1.3-2.2-1.7s-1.8-.7-2.7-.7c-.9-.1-1.9 0-2.8.3s-1.7.7-2.4 1.3c-.3.2-.5.5-.7.7-1.6 1.8-2.5 4.2-2.3 6.6v26.6h-11.9v-26.6c.1-2.4-.7-4.8-2.3-6.6-.6-.7-1.4-1.3-2.2-1.7s-1.8-.7-2.7-.7c-.9-.1-1.9 0-2.8.3s-1.7.7-2.4 1.3c-.3.2-.5.5-.7.7-1.6 1.8-2.5 4.2-2.3 6.6v26.6h-11.9zm83.9-5.5c-1.6 0-3.2-.5-4.4-1.4-1.3-1-2.1-2.3-2.5-3.8-.3-1.5-.1-3.1.6-4.5s1.9-2.5 3.4-3.1 3.1-.7 4.7-.3c1.5.4 2.9 1.4 3.8 2.7s1.3 2.8 1.2 4.4c-.2 1.6-.9 3-2 4.1-.6.6-1.3 1.1-2.1 1.5-1 .2-1.8.4-2.7.4zm-6.2 5.5h11.9v46.2h-11.9zm20.6 36.6 20.7-25.6h-20.7v-11h35.7v9.5l-20.7 25.7h21.7v11h-36.8v-9.6zm66.9 10.1c-3.2 0-6.3-.6-9.2-1.9-2.8-1.2-5.4-2.9-7.6-5.1s-4-4.7-5.2-7.5c-1.3-2.9-1.9-6-1.9-9.2s.6-6.3 1.9-9.2c1.2-2.8 3-5.3 5.2-7.5 2.2-2.1 4.7-3.9 7.6-5.1 2.8-1.2 5.9-1.8 9-1.9 3.1 0 6.1.6 9 1.7 2.7 1.1 5.2 2.8 7.2 4.8 2.1 2.2 3.8 4.7 4.9 7.5 1.2 3.1 1.8 6.3 1.8 9.6 0 .5 0 1-.1 1.6-.1.5-.1 1-.2 1.5s-.1 1-.2 1.5h-33.1c.5 2.2 1.7 4.2 3.5 5.7 2.1 1.6 4.7 2.5 7.4 2.3 1.3 0 2.7-.1 4-.5 1-.3 1.9-.7 2.7-1.2s1.5-1.1 2.1-1.8h12.4c-.7 1.9-1.7 3.6-2.9 5.2-1.3 1.8-2.9 3.4-4.7 4.7-1.9 1.4-4 2.5-6.2 3.4-2.3 1-4.8 1.4-7.4 1.4zm11.4-27.1c-.5-2.6-1.9-4.9-4-6.6s-4.7-2.6-7.4-2.6-5.3.9-7.4 2.6-3.5 4-4 6.6zm20.2-36.7h11.9v63.3h-11.9zm30 79.9c-.5 0-1.1 0-1.6-.1-.4 0-.9-.1-1.3-.2-.4 0-.8-.2-1.2-.3v-9.5c2.2.1 4.3-.5 6.1-1.7 1.4-1.2 2.6-2.6 3.3-4.3l1-2.5-18.2-44.2h12.4l11.9 30.1 10.9-30.1h12.4c-3.4 8.4-6.5 16.1-9.2 22.9-1.2 2.9-2.3 5.8-3.5 8.6-1.1 2.8-2.1 5.4-3.1 7.7-.9 2.3-1.7 4.2-2.3 5.8-.6 1.5-1 2.4-1.1 2.7-1 2.4-2.2 4.7-3.5 7-1 1.7-2.2 3.3-3.7 4.7-1.2 1.1-2.7 2-4.2 2.6-1.6.5-3.4.8-5.1.8zm-385.4-85.8c-7.1 0-14 2-20 5.9-5.9 3.8-10.5 9.3-13.2 15.6-2.7 6.4-3.4 13.4-2 20.1 1.4 6.8 4.8 13 9.8 17.8 5 4.9 11.4 8.2 18.4 9.5s14.2.7 20.8-2c6.6-2.6 12.2-7.1 16.1-12.8s6.1-12.5 6.1-19.3c0-4.6-.9-9.1-2.7-13.3s-4.5-8.1-7.8-11.3-7.3-5.8-11.7-7.5c-4.4-1.8-9.1-2.7-13.8-2.7zm0 57.6c-4.6.1-9.2-1.2-13.1-3.7s-6.9-6-8.8-10.1c-1.8-4.1-2.3-8.7-1.5-13.1.9-4.4 3-8.5 6.3-11.7 3.2-3.2 7.4-5.4 12-6.3 4.5-.9 9.3-.5 13.6 1.2s8 4.6 10.6 8.3 4 8.1 4.1 12.6v.3c0 6-2.4 11.7-6.8 16-4.3 4-10.2 6.4-16.4 6.5z"/></g></svg>